<svg xmlns="http://www.w3.org/2000/svg" viewBox="0 0 21.06 20.03"><defs><style>.cls-1{fill:#ea9b00;stroke:#ea9b00;stroke-miterlimit:10;stroke-width:0.5px;}</style></defs><title>Asset 8</title><g id="Layer_2" data-name="Layer 2"><g id="Layer_1-2" data-name="Layer 1"><path class="cls-1" d="M10.56,12.14a.43.43,0,0,1-.21-.05L.47,6.55a.43.43,0,0,1,0-.74L10.29.3a.43.43,0,0,1,.41,0l9.89,5.54a.42.42,0,0,1,0,.74l-9.82,5.5A.43.43,0,0,1,10.56,12.14Zm-9-6,9,5.05,9-5-9-5.05Z"/><path class="cls-1" d="M10.56,16a.43.43,0,0,1-.21-.05L.47,10.37a.42.42,0,0,1,.41-.74l9.68,5.42,9.61-5.39a.42.42,0,0,1,.41.74l-9.82,5.5A.43.43,0,0,1,10.56,16Z"/><path class="cls-1" d="M10.56,19.78a.43.43,0,0,1-.21-.05L.47,14.19a.42.42,0,0,1,.41-.74l9.68,5.42,9.61-5.39a.42.42,0,0,1,.41.74l-9.82,5.5A.43.43,0,0,1,10.56,19.78Z"/></g></g></svg>