<?xml version="1.0" encoding="UTF-8" standalone="no"?>
<svg width="51px" height="51px" viewBox="0 0 51 51" version="1.1" xmlns="http://www.w3.org/2000/svg" xmlns:xlink="http://www.w3.org/1999/xlink" xmlns:sketch="http://www.bohemiancoding.com/sketch/ns">
    <!-- Generator: Sketch 3.3.3 (12072) - http://www.bohemiancoding.com/sketch -->
    <title>Artboard 10</title>
    <desc>Created with Sketch.</desc>
    <defs></defs>
    <g id="Page-2" stroke="none" stroke-width="1" fill="none" fill-rule="evenodd" sketch:type="MSPage">
        <g id="Artboard-10" sketch:type="MSArtboardGroup" fill="#4A4A4A">
            <path d="M25.5,0 C11.4396122,0 0,11.4390918 0,25.5 C0,39.5609082 11.4396122,51 25.5,51 C39.5603878,51 51,39.5609082 51,25.5 C51,11.4390918 39.5603878,0 25.5,0 L25.5,0 Z M2.86016327,25.5 C2.86016327,13.0159286 13.016449,2.86016327 25.5,2.86016327 C37.983551,2.86016327 48.1398367,13.0159286 48.1398367,25.5 C48.1398367,29.6601429 47.0069082,33.5585204 45.0408061,36.912551 L41.9516633,33.5127245 L40.5522857,31.9728367 C43.1610918,26.0079184 42.2186327,18.8111939 37.5573367,13.6804898 C33.4596429,9.17167347 27.4968061,7.37054082 21.9128265,8.3764898 L31.2832959,18.688898 C32.9595306,20.5332245 32.8226633,23.3871429 30.9783367,25.0628571 L24.2994184,31.1318571 C22.4556122,32.8075714 19.6011735,32.6712245 17.9254592,30.8274184 L8.5549898,20.5144898 C7.02030612,25.9777347 8.24430612,32.0847245 12.342,36.5935408 C17.0027755,41.7237245 24.0761633,43.3484388 30.2643367,41.321449 L31.6631939,42.8613367 L34.6841633,46.1857041 C31.875,47.4383265 28.7686837,48.1398367 25.5,48.1398367 C13.016449,48.1398367 2.86016327,37.983551 2.86016327,25.5 L2.86016327,25.5 Z" id="Shape-Copy" sketch:type="MSShapeGroup"></path>
        </g>
    </g>
</svg>