<?xml version="1.0" encoding="UTF-8" standalone="no"?>
<svg width="38px" height="32px" viewBox="0 0 38 32" version="1.1" xmlns="http://www.w3.org/2000/svg" xmlns:xlink="http://www.w3.org/1999/xlink" xmlns:sketch="http://www.bohemiancoding.com/sketch/ns">
    <!-- Generator: Sketch 3.3.3 (12072) - http://www.bohemiancoding.com/sketch -->
    <title>Artboard 7</title>
    <desc>Created with Sketch.</desc>
    <defs></defs>
    <g id="Page-2" stroke="none" stroke-width="1" fill="none" fill-rule="evenodd" sketch:type="MSPage">
        <g id="Artboard-7" sketch:type="MSArtboardGroup" fill="#1D5DB3">
            <path d="M3.11676634,16.3252387 L0.772184189,16.3252387 C0.120911369,16.3252387 -0.226434134,15.5871295 0.164329557,15.0661112 L0.598511437,14.4582566 C1.72738432,12.8517836 3.02992996,11.3321471 4.37589379,9.89934686 L4.41931198,9.85592867 C4.85349386,9.33491041 5.59160305,9.33491041 6.02578493,9.85592867 C7.41516695,11.2887289 8.6742944,12.8083654 9.84658547,14.4148384 L10.2807674,15.022693 C10.671531,15.5437113 10.3241855,16.2818205 9.67291272,16.2818205 L7.32833057,16.2818205 C7.45858514,22.6642941 12.7121859,27.8310585 19.1380777,27.8310585 C21.4392417,27.8310585 23.5667329,27.1797857 25.3902968,26.0509128 C26.2152423,25.5298945 27.2572788,25.7035673 27.9519699,26.3548401 C28.90717,27.3100402 28.7334972,28.9165132 27.5612062,29.6112042 C25.1297876,31.1308408 22.220769,31.9992045 19.1380777,31.9992045 C10.4110219,32.0860409 3.29043909,25.0522945 3.11676634,16.3252387 L3.11676634,16.3252387 Z M10.3241855,5.73120081 C11.0188765,6.42589182 12.0609131,6.55614638 12.8858586,6.03512813 C14.7094225,4.90625524 16.8369137,4.25498242 19.1380777,4.25498242 C25.5639695,4.25498242 30.8175703,9.42174679 30.9478248,15.8042204 L28.6032427,15.8042204 C27.9519699,15.8042204 27.6046244,16.5423296 27.995388,17.0633479 L28.4295699,17.6712025 C29.601861,19.2776755 30.8609884,20.797312 32.2503705,22.2301122 C32.6845523,22.7511305 33.4226615,22.7511305 33.8568434,22.2301122 L33.9002616,22.1866941 C35.2896436,20.7538938 36.5487711,19.2342573 37.677644,17.6277843 L38.1118258,17.0199297 C38.5025895,16.4989114 38.155244,15.7608022 37.5039712,15.7608022 L35.1593891,15.7608022 C35.0291345,7.03374645 27.9085517,0 19.1380777,0 C16.0553864,0 13.1463678,0.868363759 10.7149492,2.38800034 C9.58607635,3.16952772 9.36898541,4.77600068 10.3241855,5.73120081 L10.3241855,5.73120081 L10.3241855,5.73120081 Z" id="Shape-Copy-11" sketch:type="MSShapeGroup"></path>
        </g>
    </g>
</svg>